<svg xmlns="http://www.w3.org/2000/svg"><symbol id="facebook" viewBox="0 0 408.79 408.79"><path d="M353.701 0H55.087C24.665 0 .002 24.662.002 55.085v298.616c0 30.423 24.662 55.085 55.085 55.085h147.275l.251-146.078h-37.951a8.954 8.954 0 0 1-8.954-8.92l-.182-47.087a8.955 8.955 0 0 1 8.955-8.989h37.882v-45.498c0-52.8 32.247-81.55 79.348-81.55h38.65a8.955 8.955 0 0 1 8.955 8.955v39.704a8.955 8.955 0 0 1-8.95 8.955l-23.719.011c-25.615 0-30.575 12.172-30.575 30.035v39.389h56.285c5.363 0 9.524 4.683 8.892 10.009l-5.581 47.087a8.955 8.955 0 0 1-8.892 7.901h-50.453l-.251 146.078h87.631c30.422 0 55.084-24.662 55.084-55.084V55.085C408.786 24.662 384.124 0 353.701 0z" class="active-path"/></symbol><symbol id="instagram" viewBox="0 0 504.4 504.4"><path d="M296.8 219.8c-10-14-26.4-23.2-44.8-23.2s-34.8 9.2-44.8 23.2c-6.4 9.2-10.4 20.4-10.4 32.4 0 30.4 24.8 55.2 55.2 55.2 30.4 0 55.2-24.8 55.2-55.2 0-12-4-23.2-10.4-32.4z" class="active-path"/><path d="M331.6 220.2c4 8 6.4 20.8 6.4 32 0 47.2-38.4 86-86 86s-86-38.4-86-86c0-11.6 2.4-24 6.4-32H124v128.4c0 16.8 14.8 31.6 31.6 31.6h192.8c16.8 0 31.6-14.8 31.6-31.6V220.2h-48.4zm34-88.8h-46.4v53.2H372V131z" class="active-path"/><path d="M377.6.2H126.4C56.8.2 0 57 0 126.6v251.6c0 69.2 56.8 126 126.4 126H378c69.6 0 126.4-56.8 126.4-126.4V126.6C504 57 447.2.2 377.6.2zM408 219.8v128.8c0 33.6-26 59.6-59.6 59.6H155.6c-33.6 0-59.6-26-59.6-59.6V155.8c0-33.6 26-59.6 59.6-59.6h192.8c33.6 0 59.6 26 59.6 59.6v64z" class="active-path"/></symbol><symbol id="twitter" viewBox="0 0 510 510"><path d="M459 0H51C22.95 0 0 22.95 0 51v408c0 28.05 22.95 51 51 51h408c28.05 0 51-22.95 51-51V51c0-28.05-22.95-51-51-51zm-58.65 186.15c-2.55 117.3-76.5 198.9-188.7 204-45.9 2.55-79.05-12.75-109.65-30.6 33.15 5.101 76.5-7.649 99.45-28.05-33.15-2.55-53.55-20.4-63.75-48.45 10.2 2.55 20.4 0 28.05 0-30.6-10.2-51-28.05-53.55-68.85 7.65 5.1 17.85 7.65 28.05 7.65-22.95-12.75-38.25-61.2-20.4-91.8 33.15 35.7 73.95 66.3 140.25 71.4-17.85-71.4 79.051-109.65 117.301-61.2 17.85-2.55 30.6-10.2 43.35-15.3-5.1 17.85-15.3 28.05-28.05 38.25 12.75-2.55 25.5-5.1 35.7-10.2-2.551 12.75-15.301 22.95-28.051 33.15z" class="active-path"/></symbol><symbol id="mail" viewBox="0 0 14 14"><path d="M7 9L5.268 7.484.316 11.729c.18.167.423.271.691.271h11.986c.267 0 .509-.104.688-.271L8.732 7.484 7 9z" class="active-path" data-original="#000000"/><path d="M13.684 2.271A1.007 1.007 0 0 0 12.993 2H1.007c-.267 0-.509.104-.689.273L7 8l6.684-5.729zM0 2.88v8.31l4.83-4.11zm9.17 4.2L14 11.19V2.88z" class="active-path"/></symbol><symbol id="search" viewBox="0 0 56.97 56.97"><path d="M55.146 51.887L41.588 37.786A22.926 22.926 0 0 0 46.984 23c0-12.682-10.318-23-23-23s-23 10.318-23 23 10.318 23 23 23c4.761 0 9.298-1.436 13.177-4.162l13.661 14.208c.571.593 1.339.92 2.162.92.779 0 1.518-.297 2.079-.837a3.004 3.004 0 0 0 .083-4.242zM23.984 6c9.374 0 17 7.626 17 17s-7.626 17-17 17-17-7.626-17-17 7.626-17 17-17z" class="active-path"/></symbol></svg>
